<svg width="500" height="500" xmlns="http://www.w3.org/2000/svg" fill="none">
 <g>
  <title>Layer 1</title>
  <path fill="#fff" stroke="#000" opacity="NaN" d="m171.5,143" id="svg_3"/>
  <g stroke="null">
   <path stroke="null" fill="#f9f7f7" d="m8,79.9c0,-40.26145 32.50423,-72.9 72.59999,-72.9l338.79998,0c40.09698,0 72.59999,32.63854 72.59999,72.9l0,340.19999c0,40.26267 -32.50302,72.9 -72.59999,72.9l-338.79998,0c-40.09577,0 -72.59999,-32.63733 -72.59999,-72.9l0,-340.19999zm48.4,340.19999l0,-170.09999l193.59999,0l0,194.39999l-169.39999,0c-13.36518,0 -24.2,-10.87911 -24.2,-24.3zm387.19997,-170.09999l-193.59999,0l0,-194.39999l169.39999,0c13.36566,0 24.2,10.8796 24.2,24.3l0,170.09999z" clip-rule="evenodd" fill-rule="evenodd"/>
  </g>
 </g>

</svg>